# This file uses centimeters as units for non-parametric coordinates.

v -0.497375 -0.478715 0.465521
v -0.489902 -0.489901 0.465521
v -0.478716 -0.497375 0.465521
v -0.465521 -0.500000 0.465521
v -0.465521 -0.497375 0.478715
v -0.465521 -0.489901 0.489901
v -0.465521 -0.478715 0.497375
v -0.465521 -0.465521 0.500000
v -0.478716 -0.465521 0.497375
v -0.489902 -0.465521 0.489901
v -0.497375 -0.465521 0.478715
v -0.500000 -0.465521 0.465521
v 0.478716 -0.497375 0.465521
v 0.489902 -0.489901 0.465521
v 0.497375 -0.478715 0.465521
v 0.500000 -0.465521 0.465521
v 0.497375 -0.465521 0.478715
v 0.489902 -0.465521 0.489901
v 0.478716 -0.465521 0.497375
v 0.465521 -0.465521 0.500000
v 0.465521 -0.478715 0.497375
v 0.465521 -0.489901 0.489901
v 0.465521 -0.497375 0.478715
v 0.465521 -0.500000 0.465521
v -0.478716 0.497375 0.465521
v -0.489902 0.489901 0.465521
v -0.497375 0.478715 0.465521
v -0.500000 0.465521 0.465521
v -0.497375 0.465521 0.478715
v -0.489902 0.465521 0.489901
v -0.478716 0.465521 0.497375
v -0.465521 0.465521 0.500000
v -0.465521 0.478715 0.497375
v -0.465521 0.489901 0.489901
v -0.465521 0.497375 0.478715
v -0.465521 0.500000 0.465521
v 0.497375 0.478715 0.465521
v 0.489902 0.489901 0.465521
v 0.478716 0.497375 0.465521
v 0.465521 0.500000 0.465521
v 0.465521 0.497375 0.478715
v 0.465521 0.489901 0.489901
v 0.465521 0.478715 0.497375
v 0.465521 0.465521 0.500000
v 0.478716 0.465521 0.497375
v 0.489902 0.465521 0.489901
v 0.497375 0.465521 0.478715
v 0.500000 0.465521 0.465521
v -0.478716 0.465521 -0.497375
v -0.489902 0.465521 -0.489901
v -0.497375 0.465521 -0.478715
v -0.500000 0.465521 -0.465521
v -0.497375 0.478715 -0.465521
v -0.489902 0.489901 -0.465521
v -0.478716 0.497375 -0.465521
v -0.465521 0.500000 -0.465521
v -0.465521 0.497375 -0.478715
v -0.465521 0.489901 -0.489901
v -0.465521 0.478715 -0.497375
v -0.465521 0.465521 -0.500000
v 0.497375 0.465521 -0.478715
v 0.489902 0.465521 -0.489901
v 0.478716 0.465521 -0.497375
v 0.465521 0.465521 -0.500000
v 0.465521 0.478715 -0.497375
v 0.465521 0.489901 -0.489901
v 0.465521 0.497375 -0.478715
v 0.465521 0.500000 -0.465521
v 0.478716 0.497375 -0.465521
v 0.489902 0.489901 -0.465521
v 0.497375 0.478715 -0.465521
v 0.500000 0.465521 -0.465521
v -0.478716 -0.497375 -0.465521
v -0.489902 -0.489901 -0.465521
v -0.497375 -0.478715 -0.465521
v -0.500000 -0.465521 -0.465521
v -0.497375 -0.465521 -0.478715
v -0.489902 -0.465521 -0.489901
v -0.478716 -0.465521 -0.497375
v -0.465521 -0.465521 -0.500000
v -0.465521 -0.478715 -0.497375
v -0.465521 -0.489901 -0.489901
v -0.465521 -0.497375 -0.478715
v -0.465521 -0.500000 -0.465521
v 0.497375 -0.478715 -0.465521
v 0.489902 -0.489901 -0.465521
v 0.478716 -0.497375 -0.465521
v 0.465521 -0.500000 -0.465521
v 0.465521 -0.497375 -0.478715
v 0.465521 -0.489901 -0.489901
v 0.465521 -0.478715 -0.497375
v 0.465521 -0.465521 -0.500000
v 0.478716 -0.465521 -0.497375
v 0.489902 -0.465521 -0.489901
v 0.497375 -0.465521 -0.478715
v 0.500000 -0.465521 -0.465521
v -0.495603 -0.477422 0.477422
v -0.488811 -0.488810 0.475625
v -0.477422 -0.495603 0.477422
v -0.475625 -0.488810 0.488810
v -0.477422 -0.477422 0.495603
v -0.488811 -0.475625 0.488810
v -0.485420 -0.485420 0.485420
v 0.477422 -0.495603 0.477422
v 0.488811 -0.488810 0.475625
v 0.495603 -0.477422 0.477422
v 0.488811 -0.475625 0.488810
v 0.477422 -0.477422 0.495603
v 0.475625 -0.488810 0.488810
v 0.485420 -0.485420 0.485420
v -0.477422 0.495603 0.477422
v -0.488811 0.488810 0.475625
v -0.495603 0.477422 0.477422
v -0.488811 0.475625 0.488810
v -0.477422 0.477422 0.495603
v -0.475625 0.488810 0.488810
v -0.485420 0.485420 0.485420
v 0.495603 0.477422 0.477422
v 0.488811 0.488810 0.475625
v 0.477422 0.495603 0.477422
v 0.475625 0.488810 0.488810
v 0.477422 0.477422 0.495603
v 0.488811 0.475625 0.488810
v 0.485420 0.485420 0.485420
v -0.477422 0.477422 -0.495603
v -0.488811 0.475625 -0.488810
v -0.495603 0.477422 -0.477422
v -0.488811 0.488810 -0.475625
v -0.477422 0.495603 -0.477422
v -0.475625 0.488810 -0.488810
v -0.485420 0.485420 -0.485420
v 0.495603 0.477422 -0.477422
v 0.488811 0.475625 -0.488810
v 0.477422 0.477422 -0.495603
v 0.475625 0.488810 -0.488810
v 0.477422 0.495603 -0.477422
v 0.488811 0.488810 -0.475625
v 0.485420 0.485420 -0.485420
v -0.477422 -0.495603 -0.477422
v -0.488811 -0.488810 -0.475625
v -0.495603 -0.477422 -0.477422
v -0.488811 -0.475625 -0.488810
v -0.477422 -0.477422 -0.495603
v -0.475625 -0.488810 -0.488810
v -0.485420 -0.485420 -0.485420
v 0.495603 -0.477422 -0.477422
v 0.488811 -0.488810 -0.475625
v 0.477422 -0.495603 -0.477422
v 0.475625 -0.488810 -0.488810
v 0.477422 -0.477422 -0.495603
v 0.488811 -0.475625 -0.488810
v 0.485420 -0.485420 -0.485420
vt 0.383620 0.991380
vt 0.383620 0.008620
vt 0.616380 0.991380
vt 0.633620 0.008620
vt 0.383620 0.241380
vt 0.616380 0.241380
vt 0.633620 0.241380
vt 0.133620 0.008620
vt 0.383620 0.491380
vt 0.616380 0.491380
vt 0.866380 0.241380
vt 0.866380 0.008620
vt 0.616380 0.758620
vt 0.383620 0.741380
vt 0.616380 0.741380
vt 0.616380 0.008620
vt 0.383620 0.258620
vt 0.616380 0.258620
vt 0.383620 0.508620
vt 0.616380 0.508620
vt 0.383620 0.758620
vt 0.366380 0.008620
vt 0.366380 0.241380
vt 0.133620 0.241380
vt 0.367979 0.004311
vt 0.375000 0.994573
vt 0.369573 -0.000000
vt 0.379300 0.992979
vt 0.382021 0.995700
vt 0.380427 -0.000000
vt 0.380427 1.000000
vt 0.382021 0.004312
vt 0.379300 0.008573
vt 0.375000 0.008553
vt 0.370700 0.008573
vt 0.620700 0.992979
vt 0.630427 -0.000000
vt 0.625000 0.994573
vt 0.632021 0.004312
vt 0.629300 0.008573
vt 0.625000 0.008553
vt 0.620700 0.008573
vt 0.617979 0.004311
vt 0.619573 1.000000
vt 0.619573 -0.000000
vt 0.617979 0.995700
vt 0.379311 0.257021
vt 0.369573 0.250000
vt 0.375000 0.255427
vt 0.367979 0.245688
vt 0.370709 0.241427
vt 0.375018 0.241446
vt 0.379321 0.241426
vt 0.383573 0.245679
vt 0.383554 0.249983
vt 0.383573 0.254290
vt 0.632021 0.245689
vt 0.625000 0.255427
vt 0.630427 0.250000
vt 0.620688 0.257021
vt 0.616427 0.254291
vt 0.616446 0.249982
vt 0.616426 0.245679
vt 0.620679 0.241426
vt 0.624983 0.241446
vt 0.629290 0.241427
vt 0.379311 0.507021
vt 0.125000 0.244573
vt 0.375000 0.505427
vt 0.129300 0.242979
vt 0.132021 0.245700
vt 0.375000 0.494573
vt 0.130427 0.250000
vt 0.379312 0.492979
vt 0.383573 0.495700
vt 0.383553 0.500000
vt 0.383573 0.504300
vt 0.870700 0.242979
vt 0.625000 0.505427
vt 0.875000 0.244573
vt 0.620688 0.507021
vt 0.616427 0.504300
vt 0.616447 0.500000
vt 0.616427 0.495700
vt 0.620689 0.492979
vt 0.869573 0.250000
vt 0.625000 0.494573
vt 0.867979 0.245700
vt 0.379311 0.757021
vt 0.130427 -0.000000
vt 0.375000 0.755427
vt 0.132021 0.004300
vt 0.129300 0.007021
vt 0.375000 0.744573
vt 0.125000 0.005427
vt 0.379312 0.742979
vt 0.383573 0.745700
vt 0.383553 0.750000
vt 0.383573 0.754300
vt 0.867979 0.004300
vt 0.625000 0.755427
vt 0.869573 -0.000000
vt 0.620688 0.757021
vt 0.616427 0.754300
vt 0.616447 0.750000
vt 0.616427 0.745700
vt 0.620689 0.742979
vt 0.875000 0.005427
vt 0.625000 0.744573
vt 0.870700 0.007021
vt 0.371212 0.004587
vt 0.375000 0.997199
vt 0.372199 -0.000000
vt 0.378790 0.996216
vt 0.377801 -0.000000
vt 0.377801 1.000000
vt 0.378786 0.004586
vt 0.375010 0.004883
vt 0.375000 1.000000
vt 0.375000 0.000000
vt 0.621216 0.996210
vt 0.627801 -0.000000
vt 0.625000 0.997199
vt 0.628786 0.004586
vt 0.625010 0.004883
vt 0.621212 0.004587
vt 0.622199 1.000000
vt 0.622199 -0.000000
vt 0.625000 0.000000
vt 0.625000 1.000000
vt 0.379588 0.253754
vt 0.372199 0.250000
vt 0.375000 0.252801
vt 0.371249 0.245412
vt 0.375166 0.245109
vt 0.379624 0.245379
vt 0.379890 0.249833
vt 0.375000 0.250000
vt 0.628754 0.245412
vt 0.625000 0.252801
vt 0.627801 0.250000
vt 0.620412 0.253751
vt 0.620109 0.249834
vt 0.620379 0.245376
vt 0.624833 0.245109
vt 0.625000 0.250000
vt 0.379587 0.503788
vt 0.125000 0.247199
vt 0.375000 0.502801
vt 0.128790 0.246216
vt 0.375000 0.497199
vt 0.127801 0.250000
vt 0.379586 0.496214
vt 0.379883 0.499990
vt 0.125000 0.250000
vt 0.375000 0.500000
vt 0.871216 0.246210
vt 0.625000 0.502801
vt 0.875000 0.247199
vt 0.620414 0.503786
vt 0.620117 0.500010
vt 0.620413 0.496212
vt 0.872199 0.250000
vt 0.625000 0.497199
vt 0.625000 0.500000
vt 0.875000 0.250000
vt 0.379587 0.753788
vt 0.127801 -0.000000
vt 0.375000 0.752801
vt 0.128784 0.003790
vt 0.375000 0.747199
vt 0.125000 0.002801
vt 0.379586 0.746214
vt 0.379883 0.749990
vt 0.125000 0.000000
vt 0.375000 0.750000
vt 0.871210 0.003784
vt 0.625000 0.752801
vt 0.872199 -0.000000
vt 0.620414 0.753786
vt 0.620117 0.750010
vt 0.620413 0.746212
vt 0.875000 0.002801
vt 0.625000 0.747199
vt 0.625000 0.750000
vt 0.875000 0.000000
vn -0.002773 -0.999992 0.002773
vn -0.382497 -0.923955 0.002107
vn -0.382497 -0.923955 -0.002107
vn -0.002773 -0.999992 -0.002773
vn -0.707115 -0.707096 0.001948
vn -0.707115 -0.707096 -0.001948
vn -0.923958 -0.382489 0.002107
vn -0.923958 -0.382489 -0.002107
vn -0.999992 -0.002772 0.002772
vn -0.999992 -0.002772 -0.002772
vn -0.002773 -0.002773 0.999992
vn -0.002107 -0.382498 0.923954
vn 0.002107 -0.382498 0.923954
vn 0.002773 -0.002773 0.999992
vn -0.001948 -0.707106 0.707105
vn 0.001948 -0.707106 0.707105
vn -0.002107 -0.923954 0.382498
vn 0.002107 -0.923954 0.382498
vn 0.002773 -0.999992 0.002773
vn -0.923958 -0.002107 0.382489
vn -0.923958 0.002107 0.382489
vn -0.999992 0.002772 0.002772
vn -0.707115 -0.001948 0.707096
vn -0.707115 0.001948 0.707096
vn -0.382497 -0.002107 0.923954
vn -0.382497 0.002107 0.923954
vn -0.002773 0.002773 0.999992
vn 0.999992 -0.002772 0.002772
vn 0.923958 -0.382489 0.002107
vn 0.923958 -0.382489 -0.002107
vn 0.999992 -0.002772 -0.002772
vn 0.707115 -0.707096 0.001948
vn 0.707115 -0.707096 -0.001948
vn 0.382497 -0.923955 0.002107
vn 0.382497 -0.923955 -0.002107
vn 0.002773 -0.999992 -0.002773
vn 0.382497 -0.002107 0.923954
vn 0.382497 0.002107 0.923954
vn 0.002773 0.002773 0.999992
vn 0.707115 -0.001948 0.707096
vn 0.707115 0.001948 0.707096
vn 0.923958 -0.002107 0.382489
vn 0.923958 0.002107 0.382489
vn 0.999992 0.002772 0.002772
vn -0.923958 0.382489 0.002107
vn -0.923958 0.382489 -0.002107
vn -0.999992 0.002772 -0.002772
vn -0.707115 0.707096 0.001948
vn -0.707115 0.707096 -0.001948
vn -0.382497 0.923955 0.002107
vn -0.382497 0.923955 -0.002107
vn -0.002773 0.999992 0.002773
vn -0.002773 0.999992 -0.002773
vn -0.002107 0.923954 0.382498
vn 0.002107 0.923954 0.382498
vn 0.002773 0.999992 0.002773
vn -0.001948 0.707106 0.707105
vn 0.001948 0.707106 0.707105
vn -0.002107 0.382498 0.923954
vn 0.002107 0.382498 0.923954
vn 0.382497 0.923955 0.002107
vn 0.382497 0.923955 -0.002107
vn 0.002773 0.999992 -0.002773
vn 0.707115 0.707096 0.001948
vn 0.707115 0.707096 -0.001948
vn 0.923958 0.382489 0.002107
vn 0.923958 0.382489 -0.002107
vn 0.999992 0.002772 -0.002772
vn -0.923958 0.002107 -0.382489
vn -0.923958 -0.002107 -0.382489
vn -0.707115 0.001948 -0.707096
vn -0.707115 -0.001948 -0.707096
vn -0.382497 0.002107 -0.923954
vn -0.382497 -0.002107 -0.923954
vn -0.002773 0.002773 -0.999992
vn -0.002773 -0.002773 -0.999992
vn -0.002107 0.382498 -0.923954
vn 0.002107 0.382498 -0.923954
vn 0.002773 0.002773 -0.999992
vn -0.001948 0.707106 -0.707105
vn 0.001948 0.707106 -0.707105
vn -0.002107 0.923954 -0.382498
vn 0.002107 0.923954 -0.382498
vn 0.382497 0.002107 -0.923954
vn 0.382497 -0.002107 -0.923954
vn 0.002773 -0.002773 -0.999992
vn 0.707115 0.001948 -0.707096
vn 0.707115 -0.001948 -0.707096
vn 0.923958 0.002107 -0.382489
vn 0.923958 -0.002107 -0.382489
vn -0.002107 -0.923954 -0.382498
vn 0.002107 -0.923954 -0.382498
vn -0.001948 -0.707106 -0.707105
vn 0.001948 -0.707106 -0.707105
vn -0.002107 -0.382498 -0.923954
vn 0.002107 -0.382498 -0.923954
vn -0.878771 -0.337462 0.337462
vn -0.673147 -0.673140 0.306195
vn -0.337459 -0.878771 0.337466
vn -0.306189 -0.673145 0.673145
vn -0.337459 -0.337467 0.878771
vn -0.673148 -0.306194 0.673139
vn -0.577350 -0.577351 0.577350
vn 0.337459 -0.878771 0.337466
vn 0.673147 -0.673141 0.306195
vn 0.878771 -0.337462 0.337462
vn 0.673147 -0.306194 0.673140
vn 0.337459 -0.337467 0.878771
vn 0.306190 -0.673145 0.673145
vn 0.577350 -0.577351 0.577350
vn -0.337459 0.878771 0.337466
vn -0.673147 0.673141 0.306195
vn -0.878771 0.337462 0.337462
vn -0.673147 0.306194 0.673140
vn -0.337459 0.337467 0.878771
vn -0.306190 0.673145 0.673145
vn -0.577350 0.577351 0.577350
vn 0.878771 0.337462 0.337462
vn 0.673147 0.673140 0.306195
vn 0.337459 0.878771 0.337466
vn 0.306189 0.673145 0.673145
vn 0.337459 0.337467 0.878771
vn 0.673148 0.306194 0.673139
vn 0.577350 0.577351 0.577350
vn -0.337459 0.337467 -0.878771
vn -0.673148 0.306194 -0.673139
vn -0.878771 0.337462 -0.337462
vn -0.673147 0.673140 -0.306195
vn -0.337459 0.878771 -0.337466
vn -0.306189 0.673145 -0.673145
vn -0.577350 0.577351 -0.577350
vn 0.878771 0.337462 -0.337462
vn 0.673147 0.306194 -0.673140
vn 0.337459 0.337467 -0.878771
vn 0.306190 0.673145 -0.673145
vn 0.337459 0.878771 -0.337466
vn 0.673147 0.673141 -0.306195
vn 0.577350 0.577351 -0.577350
vn -0.337459 -0.878771 -0.337466
vn -0.673147 -0.673141 -0.306195
vn -0.878771 -0.337462 -0.337462
vn -0.673147 -0.306194 -0.673140
vn -0.337459 -0.337467 -0.878771
vn -0.306190 -0.673145 -0.673145
vn -0.577350 -0.577351 -0.577350
vn 0.878771 -0.337462 -0.337462
vn 0.673147 -0.673140 -0.306195
vn 0.337459 -0.878771 -0.337466
vn 0.306189 -0.673145 -0.673145
vn 0.337459 -0.337467 -0.878771
vn 0.673148 -0.306194 -0.673139
vn 0.577350 -0.577351 -0.577350
s 1
f 4/1/1 3/28/2 73/89/3 84/21/4
f 3/28/2 2/26/5 74/91/6 73/89/3
f 2/27/5 1/25/7 75/92/8 74/90/6
f 1/25/7 12/22/9 76/8/10 75/92/8
f 8/2/11 7/32/12 21/43/13 20/16/14
f 7/32/12 6/30/15 22/45/16 21/43/13
f 6/31/15 5/29/17 23/46/18 22/44/16
f 5/29/17 4/1/1 24/3/19 23/46/18
f 12/22/9 11/35/20 29/51/21 28/23/22
f 11/35/20 10/34/23 30/52/24 29/51/21
f 10/34/23 9/33/25 31/53/26 30/52/24
f 9/33/25 8/2/11 32/5/27 31/53/26
f 16/4/28 15/39/29 85/100/30 96/12/31
f 15/39/29 14/37/32 86/102/33 85/100/30
f 14/38/32 13/36/34 87/103/35 86/101/33
f 13/36/34 24/3/19 88/13/36 87/103/35
f 20/16/14 19/42/37 45/64/38 44/6/39
f 19/42/37 18/41/40 46/65/41 45/64/38
f 18/41/40 17/40/42 47/66/43 46/65/41
f 17/40/42 16/4/28 48/7/44 47/66/43
f 28/23/22 27/50/45 53/71/46 52/24/47
f 27/50/45 26/48/48 54/73/49 53/71/46
f 26/49/48 25/47/50 55/74/51 54/72/49
f 25/47/50 36/17/52 56/9/53 55/74/51
f 36/17/52 35/56/54 41/61/55 40/18/56
f 35/56/54 34/55/57 42/62/58 41/61/55
f 34/55/57 33/54/59 43/63/60 42/62/58
f 33/54/59 32/5/27 44/6/39 43/63/60
f 40/18/56 39/60/61 69/85/62 68/10/63
f 39/60/61 38/58/64 70/87/65 69/85/62
f 38/59/64 37/57/66 71/88/67 70/86/65
f 37/57/66 48/7/44 72/11/68 71/88/67
f 52/24/47 51/70/69 77/93/70 76/8/10
f 51/70/69 50/68/71 78/95/72 77/93/70
f 50/69/71 49/67/73 79/96/74 78/94/72
f 49/67/73 60/19/75 80/14/76 79/96/74
f 60/19/75 59/77/77 65/82/78 64/20/79
f 59/77/77 58/76/80 66/83/81 65/82/78
f 58/76/80 57/75/82 67/84/83 66/83/81
f 57/75/82 56/9/53 68/10/63 67/84/83
f 64/20/79 63/81/84 93/107/85 92/15/86
f 63/81/84 62/79/87 94/109/88 93/107/85
f 62/80/87 61/78/89 95/110/90 94/108/88
f 61/78/89 72/11/68 96/12/31 95/110/90
f 84/21/4 83/99/91 89/104/92 88/13/36
f 83/99/91 82/98/93 90/105/94 89/104/92
f 82/98/93 81/97/95 91/106/96 90/105/94
f 81/97/95 80/14/76 92/15/86 91/106/96
f 8/2/11 20/16/14 44/6/39 32/5/27
f 36/17/52 40/18/56 68/10/63 56/9/53
f 60/19/75 64/20/79 92/15/86 80/14/76
f 84/21/4 88/13/36 24/3/19 4/1/1
f 16/4/28 96/12/31 72/11/68 48/7/44
f 76/8/10 12/22/9 28/23/22 52/24/47
f 11/35/20 12/22/9 1/25/7 97/111/97
f 97/111/97 1/25/7 2/27/5 98/113/98
f 98/112/98 2/26/5 3/28/2 99/114/99
f 3/28/2 4/1/1 5/29/17 99/114/99
f 99/114/99 5/29/17 6/31/15 100/116/100
f 100/115/100 6/30/15 7/32/12 101/117/101
f 7/32/12 8/2/11 9/33/25 101/117/101
f 101/117/101 9/33/25 10/34/23 102/118/102
f 102/118/102 10/34/23 11/35/20 97/111/97
f 102/118/102 97/111/97 98/113/98 103/120/103
f 98/112/98 99/114/99 100/116/100 103/119/103
f 100/115/100 101/117/101 102/118/102 103/120/103
f 23/46/18 24/3/19 13/36/34 104/121/104
f 104/121/104 13/36/34 14/38/32 105/123/105
f 105/122/105 14/37/32 15/39/29 106/124/106
f 15/39/29 16/4/28 17/40/42 106/124/106
f 106/124/106 17/40/42 18/41/40 107/125/107
f 107/125/107 18/41/40 19/42/37 108/126/108
f 19/42/37 20/16/14 21/43/13 108/126/108
f 108/126/108 21/43/13 22/45/16 109/128/109
f 109/127/109 22/44/16 23/46/18 104/121/104
f 109/127/109 104/121/104 105/123/105 110/130/110
f 105/122/105 106/124/106 107/125/107 110/129/110
f 107/125/107 108/126/108 109/128/109 110/129/110
f 35/56/54 36/17/52 25/47/50 111/131/111
f 111/131/111 25/47/50 26/49/48 112/133/112
f 112/132/112 26/48/48 27/50/45 113/134/113
f 27/50/45 28/23/22 29/51/21 113/134/113
f 113/134/113 29/51/21 30/52/24 114/135/114
f 114/135/114 30/52/24 31/53/26 115/136/115
f 31/53/26 32/5/27 33/54/59 115/136/115
f 115/136/115 33/54/59 34/55/57 116/137/116
f 116/137/116 34/55/57 35/56/54 111/131/111
f 116/137/116 111/131/111 112/133/112 117/138/117
f 112/132/112 113/134/113 114/135/114 117/138/117
f 114/135/114 115/136/115 116/137/116 117/138/117
f 47/66/43 48/7/44 37/57/66 118/139/118
f 118/139/118 37/57/66 38/59/64 119/141/119
f 119/140/119 38/58/64 39/60/61 120/142/120
f 39/60/61 40/18/56 41/61/55 120/142/120
f 120/142/120 41/61/55 42/62/58 121/143/121
f 121/143/121 42/62/58 43/63/60 122/144/122
f 43/63/60 44/6/39 45/64/38 122/144/122
f 122/144/122 45/64/38 46/65/41 123/145/123
f 123/145/123 46/65/41 47/66/43 118/139/118
f 123/145/123 118/139/118 119/141/119 124/146/124
f 119/140/119 120/142/120 121/143/121 124/146/124
f 121/143/121 122/144/122 123/145/123 124/146/124
f 59/77/77 60/19/75 49/67/73 125/147/125
f 125/147/125 49/67/73 50/69/71 126/149/126
f 126/148/126 50/68/71 51/70/69 127/150/127
f 51/70/69 52/24/47 53/71/46 127/150/127
f 127/150/127 53/71/46 54/73/49 128/152/128
f 128/151/128 54/72/49 55/74/51 129/153/129
f 55/74/51 56/9/53 57/75/82 129/153/129
f 129/153/129 57/75/82 58/76/80 130/154/130
f 130/154/130 58/76/80 59/77/77 125/147/125
f 130/154/130 125/147/125 126/149/126 131/156/131
f 126/148/126 127/150/127 128/152/128 131/155/131
f 128/151/128 129/153/129 130/154/130 131/156/131
f 71/88/67 72/11/68 61/78/89 132/157/132
f 132/157/132 61/78/89 62/80/87 133/159/133
f 133/158/133 62/79/87 63/81/84 134/160/134
f 63/81/84 64/20/79 65/82/78 134/160/134
f 134/160/134 65/82/78 66/83/81 135/161/135
f 135/161/135 66/83/81 67/84/83 136/162/136
f 67/84/83 68/10/63 69/85/62 136/162/136
f 136/162/136 69/85/62 70/87/65 137/164/137
f 137/163/137 70/86/65 71/88/67 132/157/132
f 137/163/137 132/157/132 133/159/133 138/166/138
f 133/158/133 134/160/134 135/161/135 138/165/138
f 135/161/135 136/162/136 137/164/137 138/165/138
f 83/99/91 84/21/4 73/89/3 139/167/139
f 139/167/139 73/89/3 74/91/6 140/169/140
f 140/168/140 74/90/6 75/92/8 141/170/141
f 75/92/8 76/8/10 77/93/70 141/170/141
f 141/170/141 77/93/70 78/95/72 142/172/142
f 142/171/142 78/94/72 79/96/74 143/173/143
f 79/96/74 80/14/76 81/97/95 143/173/143
f 143/173/143 81/97/95 82/98/93 144/174/144
f 144/174/144 82/98/93 83/99/91 139/167/139
f 144/174/144 139/167/139 140/169/140 145/176/145
f 140/168/140 141/170/141 142/172/142 145/175/145
f 142/171/142 143/173/143 144/174/144 145/176/145
f 95/110/90 96/12/31 85/100/30 146/177/146
f 146/177/146 85/100/30 86/102/33 147/179/147
f 147/178/147 86/101/33 87/103/35 148/180/148
f 87/103/35 88/13/36 89/104/92 148/180/148
f 148/180/148 89/104/92 90/105/94 149/181/149
f 149/181/149 90/105/94 91/106/96 150/182/150
f 91/106/96 92/15/86 93/107/85 150/182/150
f 150/182/150 93/107/85 94/109/88 151/184/151
f 151/183/151 94/108/88 95/110/90 146/177/146
f 151/183/151 146/177/146 147/179/147 152/186/152
f 147/178/147 148/180/148 149/181/149 152/185/152
f 149/181/149 150/182/150 151/184/151 152/185/152
