# This file uses centimeters as units for non-parametric coordinates.

v -1.152763 0.379226 0.500000
v 1.152763 0.379226 0.500000
v -1.152763 0.583600 0.500000
v 1.152763 0.583600 0.500000
v -1.152763 0.583600 -0.500000
v 1.152763 0.583600 -0.500000
v -1.152763 0.379226 -0.500000
v 1.152763 0.379226 -0.500000
v -0.560904 0.577469 0.109182
v -0.342540 0.577469 0.109182
v -0.560904 3.505407 0.109182
v -0.342540 3.505407 0.109182
v -0.560904 3.505407 -0.109182
v -0.342540 3.505407 -0.109182
v -0.560904 0.577469 -0.109182
v -0.342540 0.577469 -0.109182
v -1.554504 3.117973 0.625386
v 1.554504 3.117973 0.625386
v -1.554504 3.309048 0.734186
v 1.554504 3.309048 0.734186
v -1.554504 4.083204 -0.625386
v 1.554504 4.083204 -0.625386
v -1.554504 3.892129 -0.734186
v 1.554504 3.892129 -0.734186
v -1.429716 3.309048 0.734186
v -1.429716 4.083204 -0.625386
v -1.429716 3.892129 -0.734186
v -1.429716 3.117973 0.625386
v 1.394430 3.309048 0.734186
v 1.394430 4.083204 -0.625386
v 1.394430 3.892129 -0.734186
v 1.394430 3.117973 0.625386
v -1.429716 4.026343 -0.525529
v -1.554504 4.026343 -0.525529
v -1.554504 3.835269 -0.634329
v -1.429716 3.835269 -0.634329
v 1.394430 3.835269 -0.634329
v 1.554504 3.835269 -0.634329
v 1.554504 4.026343 -0.525529
v 1.394430 4.026343 -0.525529
v -1.429716 3.368405 0.629942
v -1.554504 3.368405 0.629942
v -1.554504 3.177331 0.521142
v -1.429716 3.177331 0.521142
v 1.394430 3.177331 0.521142
v 1.554504 3.177331 0.521142
v 1.554504 3.368405 0.629942
v 1.394430 3.368405 0.629942
v 1.394430 3.311739 0.597675
v -1.429716 3.311739 0.597675
v 1.394430 3.969677 -0.557795
v -1.429716 3.969677 -0.557795
v -1.429716 3.309048 0.734186
v 1.394430 3.309048 0.734186
v 1.394430 3.368405 0.629942
v -1.429716 3.368405 0.629942
v -1.554504 3.363111 0.764970
v -1.429716 3.363111 0.764970
v -1.429716 3.422468 0.660726
v -1.554504 3.422468 0.660726
v -1.429716 3.363111 0.764970
v 1.394430 3.363111 0.764970
v 1.394430 3.422468 0.660726
v -1.429716 3.422468 0.660726
v 1.394430 3.363111 0.764970
v 1.554504 3.363111 0.764970
v 1.554504 3.422468 0.660726
v 1.394430 3.422468 0.660726
v 0.310570 0.577469 0.109182
v 0.528934 0.577469 0.109182
v 0.310570 3.505407 0.109182
v 0.528934 3.505407 0.109182
v 0.310570 3.505407 -0.109182
v 0.528934 3.505407 -0.109182
v 0.310570 0.577469 -0.109182
v 0.528934 0.577469 -0.109182
vt 0.375000 0.000000
vt 0.625000 0.000000
vt 0.375000 0.250000
vt 0.625000 0.250000
vt 0.375000 0.500000
vt 0.625000 0.500000
vt 0.375000 0.750000
vt 0.625000 0.750000
vt 0.375000 1.000000
vt 0.625000 1.000000
vt 0.875000 0.000000
vt 0.875000 0.250000
vt 0.125000 0.000000
vt 0.125000 0.250000
vt 0.375000 0.000000
vt 0.625000 0.000000
vt 0.625000 0.250000
vt 0.375000 0.250000
vt 0.625000 0.500000
vt 0.375000 0.500000
vt 0.625000 0.750000
vt 0.375000 0.750000
vt 0.625000 1.000000
vt 0.375000 1.000000
vt 0.875000 0.000000
vt 0.875000 0.250000
vt 0.125000 0.000000
vt 0.125000 0.250000
vt 0.375000 0.000000
vt 0.385034 0.000000
vt 0.385034 0.250000
vt 0.375000 0.250000
vt 0.375000 0.250000
vt 0.385034 0.250000
vt 0.385034 0.269169
vt 0.375000 0.269169
vt 0.375000 0.500000
vt 0.385034 0.500000
vt 0.385034 0.750000
vt 0.375000 0.750000
vt 0.375000 0.980831
vt 0.385034 0.980831
vt 0.385034 1.000000
vt 0.375000 1.000000
vt 0.625000 0.000000
vt 0.644169 0.000000
vt 0.644169 0.250000
vt 0.625000 0.250000
vt 0.355831 0.000000
vt 0.355831 0.250000
vt 0.385034 0.250000
vt 0.612128 0.250000
vt 0.612128 0.269169
vt 0.385034 0.269169
vt 0.612128 0.500000
vt 0.612128 0.750000
vt 0.612128 0.980831
vt 0.612128 1.000000
vt 0.612128 0.000000
vt 0.612128 0.250000
vt 0.612128 0.250000
vt 0.625000 0.250000
vt 0.625000 0.269169
vt 0.612128 0.269169
vt 0.625000 0.500000
vt 0.625000 0.750000
vt 0.625000 0.980831
vt 0.625000 1.000000
vt 0.375000 0.481638
vt 0.385034 0.481638
vt 0.125000 0.000000
vt 0.143362 0.000000
vt 0.143362 0.250000
vt 0.125000 0.250000
vt 0.385034 0.768362
vt 0.375000 0.768362
vt 0.612128 0.768362
vt 0.625000 0.768362
vt 0.856638 0.250000
vt 0.856638 0.000000
vt 0.875000 0.000000
vt 0.875000 0.250000
vt 0.612128 0.481638
vt 0.625000 0.481638
vt 0.375000 0.269169
vt 0.385034 0.269169
vt 0.612128 0.269169
vt 0.625000 0.269169
vt 0.385034 0.269169
vt 0.612128 0.269169
vt 0.612128 0.481638
vt 0.385034 0.481638
vt 0.612128 0.250000
vt 0.385034 0.250000
vt 0.612128 0.269169
vt 0.385034 0.269169
vt 0.375000 0.000000
vt 0.625000 0.000000
vt 0.625000 0.250000
vt 0.375000 0.250000
vt 0.625000 0.500000
vt 0.375000 0.500000
vt 0.625000 0.750000
vt 0.375000 0.750000
vt 0.625000 1.000000
vt 0.375000 1.000000
vt 0.875000 0.000000
vt 0.875000 0.250000
vt 0.125000 0.000000
vt 0.125000 0.250000
vn 0.000000 0.000000 1.000000
vn 0.000000 0.000000 1.000000
vn 0.000000 0.000000 1.000000
vn 0.000000 0.000000 1.000000
vn 0.000000 1.000000 0.000000
vn 0.000000 1.000000 0.000000
vn 0.000000 1.000000 0.000000
vn 0.000000 1.000000 0.000000
vn 0.000000 0.000000 -1.000000
vn 0.000000 0.000000 -1.000000
vn 0.000000 0.000000 -1.000000
vn 0.000000 0.000000 -1.000000
vn 0.000000 -1.000000 0.000000
vn 0.000000 -1.000000 0.000000
vn 0.000000 -1.000000 0.000000
vn 0.000000 -1.000000 0.000000
vn 1.000000 0.000000 0.000000
vn 1.000000 0.000000 0.000000
vn 1.000000 0.000000 0.000000
vn 1.000000 0.000000 0.000000
vn -1.000000 0.000000 0.000000
vn -1.000000 0.000000 0.000000
vn -1.000000 0.000000 0.000000
vn -1.000000 0.000000 0.000000
vn 0.000000 0.000000 1.000000
vn 0.000000 0.000000 1.000000
vn 0.000000 0.000000 1.000000
vn 0.000000 0.000000 1.000000
vn 0.000000 1.000000 0.000000
vn 0.000000 1.000000 0.000000
vn 0.000000 1.000000 0.000000
vn 0.000000 1.000000 0.000000
vn 0.000000 0.000000 -1.000000
vn 0.000000 0.000000 -1.000000
vn 0.000000 0.000000 -1.000000
vn 0.000000 0.000000 -1.000000
vn 0.000000 -1.000000 0.000000
vn 0.000000 -1.000000 0.000000
vn 0.000000 -1.000000 0.000000
vn 0.000000 -1.000000 0.000000
vn 1.000000 0.000000 0.000000
vn 1.000000 0.000000 0.000000
vn 1.000000 0.000000 0.000000
vn 1.000000 0.000000 0.000000
vn -1.000000 0.000000 0.000000
vn -1.000000 0.000000 0.000000
vn -1.000000 0.000000 0.000000
vn -1.000000 0.000000 0.000000
vn 0.000000 -0.494818 0.868997
vn 0.000000 -0.494817 0.868997
vn 0.000000 -0.494817 0.868997
vn 0.000000 -0.494817 0.868997
vn 0.000000 0.868997 0.494817
vn 0.000000 0.868997 0.494817
vn 0.000000 0.868997 0.494817
vn 0.000000 0.868997 0.494817
vn 0.000000 0.494817 -0.868997
vn 0.000000 0.494818 -0.868997
vn 0.000000 0.494818 -0.868997
vn 0.000000 0.494817 -0.868997
vn 0.000000 -0.868997 -0.494817
vn 0.000000 -0.868997 -0.494817
vn 0.000000 -0.868997 -0.494817
vn 0.000000 -0.868998 -0.494816
vn 1.000000 0.000001 0.000000
vn 1.000000 0.000000 0.000000
vn 1.000000 0.000000 0.000000
vn 1.000000 0.000000 0.000000
vn -1.000000 0.000000 0.000000
vn -1.000000 0.000001 0.000000
vn -1.000000 0.000000 0.000000
vn -1.000000 0.000000 0.000000
vn 0.000000 0.868997 0.494817
vn 0.000000 0.868997 0.494817
vn 0.000000 0.868997 0.494817
vn 0.000000 0.868997 0.494817
vn 0.000000 0.494818 -0.868997
vn 0.000000 0.494818 -0.868997
vn 0.000000 -0.868997 -0.494817
vn 0.000000 -0.868997 -0.494817
vn 0.000000 -0.494817 0.868997
vn 0.000000 -0.494817 0.868997
vn 0.000000 0.868997 0.494818
vn 0.000000 0.868997 0.494818
vn 0.000000 0.868997 0.494818
vn 0.000000 0.868997 0.494818
vn 0.000000 0.494817 -0.868997
vn 0.000000 0.494817 -0.868997
vn 0.000000 -0.868997 -0.494817
vn 0.000000 -0.868998 -0.494816
vn 0.000000 -0.494818 0.868997
vn 0.000000 -0.494817 0.868997
vn 0.000000 0.868997 0.494818
vn 0.000000 0.868994 0.494822
vn 0.000000 0.868993 0.494825
vn 0.000000 0.868993 0.494824
vn -1.000000 0.000000 0.000000
vn -1.000000 -0.000000 0.000000
vn -1.000000 -0.000000 0.000000
vn -1.000000 0.000000 0.000000
vn 0.000000 -0.868997 -0.494817
vn 0.000000 -0.868996 -0.494819
vn 0.000000 -0.868997 -0.494817
vn 0.000000 -0.868997 -0.494817
vn 0.000000 -0.868997 -0.494817
vn 0.000000 -0.868996 -0.494819
vn 0.000000 -0.868997 -0.494817
vn 0.000000 -0.868997 -0.494818
vn 1.000000 0.000000 0.000000
vn 1.000000 0.000000 0.000000
vn 1.000000 0.000000 0.000000
vn 1.000000 0.000000 0.000000
vn 0.000000 0.868994 0.494822
vn 0.000000 0.868997 0.494817
vn 0.000000 0.868993 0.494825
vn 0.000000 0.868993 0.494825
vn 0.000000 0.868997 0.494817
vn 0.000000 0.868997 0.494817
vn 0.000000 0.868997 0.494817
vn 0.000000 0.868997 0.494817
vn 0.000000 0.868997 0.494817
vn 0.000000 0.868997 0.494817
vn 0.000000 0.868997 0.494817
vn 0.000000 0.868997 0.494817
vn 0.000000 0.494818 -0.868997
vn 0.000000 0.494818 -0.868997
vn 0.000000 0.494818 -0.868997
vn 0.000000 0.494818 -0.868997
vn -1.000000 0.000001 0.000000
vn -1.000000 0.000001 0.000000
vn -1.000000 0.000001 0.000000
vn -1.000000 0.000001 0.000000
vn 0.000000 -0.494818 0.868996
vn 0.000000 -0.494818 0.868996
vn 0.000000 -0.494818 0.868996
vn 0.000000 -0.494818 0.868996
vn 1.000000 0.000001 0.000000
vn 1.000000 0.000001 0.000000
vn 1.000000 0.000001 0.000000
vn 1.000000 0.000001 0.000000
vn 0.000000 0.000000 0.000000
vn 0.000000 0.000000 0.000000
vn 0.000000 0.000000 0.000000
vn 0.000000 0.000000 0.000000
vn 0.000000 0.000000 0.000000
vn 0.000000 0.000000 0.000000
vn 0.000000 0.000000 0.000000
vn 0.000000 0.000000 0.000000
vn 0.000000 0.000000 0.000000
vn 0.000000 0.000000 0.000000
vn 0.000000 0.000000 0.000000
vn 0.000000 0.000000 0.000000
vn 0.000000 0.000000 0.000000
vn 0.000000 0.000000 0.000000
vn 0.000000 0.000000 0.000000
vn 0.000000 0.000000 0.000000
vn 0.000000 -0.494815 0.868998
vn 0.000000 -0.494815 0.868998
vn 1.000000 -0.000001 0.000000
vn 1.000000 -0.000001 0.000000
vn 1.000000 -0.000001 0.000000
vn 1.000000 -0.000001 0.000000
vn 0.000000 0.494818 -0.868996
vn 0.000000 0.494818 -0.868996
vn 0.000000 0.494818 -0.868996
vn 0.000000 0.494818 -0.868996
vn -1.000000 0.000000 0.000000
vn -1.000000 0.000000 0.000000
vn 0.000000 -0.494816 0.868998
vn 0.000000 -0.494816 0.868998
vn 0.000000 -0.494816 0.868998
vn 0.000000 -0.494816 0.868998
vn 1.000000 -0.000000 0.000000
vn 1.000000 -0.000000 0.000000
vn 1.000000 -0.000000 0.000000
vn 1.000000 -0.000000 0.000000
vn 0.000000 0.494817 -0.868997
vn 0.000000 0.494817 -0.868997
vn 0.000000 0.494817 -0.868997
vn 0.000000 0.494817 -0.868997
vn -1.000000 0.000001 0.000000
vn -1.000000 0.000001 0.000000
vn -1.000000 0.000001 0.000000
vn -1.000000 0.000001 0.000000
vn 0.000000 -0.494815 0.868998
vn 0.000000 -0.494815 0.868998
vn 1.000000 0.000000 0.000000
vn 1.000000 0.000000 0.000000
vn 0.000000 0.494818 -0.868997
vn 0.000000 0.494818 -0.868997
vn 0.000000 0.494818 -0.868997
vn 0.000000 0.494818 -0.868997
vn -1.000000 0.000000 0.000000
vn -1.000000 0.000000 0.000000
vn -1.000000 0.000000 0.000000
vn -1.000000 0.000000 0.000000
vn 0.000000 0.000000 1.000000
vn 0.000000 0.000000 1.000000
vn 0.000000 0.000000 1.000000
vn 0.000000 0.000000 1.000000
vn 0.000000 1.000000 0.000000
vn 0.000000 1.000000 0.000000
vn 0.000000 1.000000 0.000000
vn 0.000000 1.000000 0.000000
vn 0.000000 0.000000 -1.000000
vn 0.000000 0.000000 -1.000000
vn 0.000000 0.000000 -1.000000
vn 0.000000 0.000000 -1.000000
vn 0.000000 -1.000000 0.000000
vn 0.000000 -1.000000 0.000000
vn 0.000000 -1.000000 0.000000
vn 0.000000 -1.000000 0.000000
vn 1.000000 0.000000 0.000000
vn 1.000000 0.000000 0.000000
vn 1.000000 0.000000 0.000000
vn 1.000000 0.000000 0.000000
vn -1.000000 0.000000 0.000000
vn -1.000000 0.000000 0.000000
vn -1.000000 0.000000 0.000000
vn -1.000000 0.000000 0.000000
s off
f 1/1/1 2/2/2 4/4/3 3/3/4
f 3/3/5 4/4/6 6/6/7 5/5/8
f 5/5/9 6/6/10 8/8/11 7/7/12
f 7/7/13 8/8/14 2/10/15 1/9/16
f 2/2/17 8/11/18 6/12/19 4/4/20
f 7/13/21 1/1/22 3/3/23 5/14/24
f 9/15/25 10/16/26 12/17/27 11/18/28
f 11/18/29 12/17/30 14/19/31 13/20/32
f 13/20/33 14/19/34 16/21/35 15/22/36
f 15/22/37 16/21/38 10/23/39 9/24/40
f 10/16/41 16/25/42 14/26/43 12/17/44
f 15/27/45 9/15/46 11/18/47 13/28/48
s 1
f 17/29/49 28/30/50 25/31/51 19/32/52
s off
f 57/33/53 58/34/54 59/35/55 60/36/56
s 2
f 21/37/57 26/38/58 27/39/59 23/40/60
s 3
f 43/41/61 44/42/62 28/43/63 17/44/64
s 4
f 18/45/65 46/46/66 47/47/67 20/48/68
s 5
f 43/49/69 17/29/70 19/32/71 42/50/72
s off
f 61/51/73 62/52/74 63/53/75 64/54/76
s 2
f 27/39/59 26/38/58 30/55/77 31/56/78
s 3
f 28/43/63 44/42/62 45/57/79 32/58/80
s 1
f 25/31/51 28/30/50 32/59/81 29/60/82
s off
f 65/61/83 66/62/84 67/63/85 68/64/86
s 2
f 31/56/78 30/55/77 22/65/87 24/66/88
s 3
f 32/58/80 45/57/79 46/67/89 18/68/90
s 1
f 29/60/82 32/59/81 18/45/91 20/48/92
s 6
f 34/69/93 33/70/94 26/38/95 21/37/96
s 5
f 23/71/97 35/72/98 34/73/99 21/74/100
s 3
f 23/40/101 27/39/102 36/75/103 35/76/104
f 37/77/105 36/75/103 27/39/102 31/56/106
f 38/78/107 37/77/105 31/56/106 24/66/108
s 4
f 39/79/109 38/80/110 24/81/111 22/82/112
s 6
f 40/83/113 39/84/114 22/65/115 30/55/116
f 33/70/94 40/83/113 30/55/116 26/38/95
f 42/85/117 41/86/118 33/70/94 34/69/93
s 5
f 35/72/98 43/49/69 42/50/72 34/73/99
s 3
f 35/76/104 36/75/103 44/42/62 43/41/61
f 45/57/79 44/42/62 36/75/103 37/77/105
f 46/67/89 45/57/79 37/77/105 38/78/107
s 4
f 47/47/67 46/46/66 38/80/110 39/79/109
s 6
f 48/87/119 47/88/120 39/84/114 40/83/113
s off
f 50/89/121 49/90/122 51/91/123 52/92/124
f 41/86/125 48/87/126 49/90/127 50/89/128
f 48/87/129 40/83/130 51/91/131 49/90/132
f 40/83/133 33/70/134 52/92/135 51/91/136
f 33/70/137 41/86/138 50/89/139 52/92/140
f 25/31/141 29/60/142 54/93/143 53/94/144
f 29/60/145 48/87/146 55/95/147 54/93/148
f 48/87/149 41/86/150 56/96/151 55/95/152
f 41/86/153 25/31/154 53/94/155 56/96/156
s 1
f 19/32/52 25/31/51 58/34/157 57/33/158
s off
f 25/31/159 41/86/160 59/35/161 58/34/162
f 41/86/163 42/85/164 60/36/165 59/35/166
s 5
f 42/85/72 19/32/71 57/33/167 60/36/168
s off
f 53/94/169 54/93/170 62/52/171 61/51/172
f 54/93/173 55/95/174 63/53/175 62/52/176
f 55/95/177 56/96/178 64/54/179 63/53/180
f 56/96/181 53/94/182 61/51/183 64/54/184
s 1
f 29/60/82 20/48/92 66/62/185 65/61/186
s 4
f 20/48/68 47/88/67 67/63/187 66/62/188
s off
f 47/88/189 48/87/190 68/64/191 67/63/192
f 48/87/193 29/60/194 65/61/195 68/64/196
f 69/97/197 70/98/198 72/99/199 71/100/200
f 71/100/201 72/99/202 74/101/203 73/102/204
f 73/102/205 74/101/206 76/103/207 75/104/208
f 75/104/209 76/103/210 70/105/211 69/106/212
f 70/98/213 76/107/214 74/108/215 72/99/216
f 75/109/217 69/97/218 71/100/219 73/110/220
